<svg id="Capa_1" data-name="Capa 1" xmlns="http://www.w3.org/2000/svg" viewBox="0 0 731.84 662.6"><defs><style>.cls-1{fill:#4e738a;}.cls-2{fill:#f0e77b;}</style></defs><path class="cls-1" d="M45.12,620.6H150.18V505.82C150.18,569.21,103.14,620.6,45.12,620.6Z"/><path class="cls-1" d="M151.14,621.64h-106v-2.08c57.4,0,104.09-51,104.09-113.74h1.93Zm-86-2.08h84V527.84C141,574.12,107.55,610.66,65.18,619.56Z"/><path class="cls-1" d="M45.12,41.9c58,0,105.06,51.39,105.06,114.77V41.9Z"/><path class="cls-1" d="M151.14,156.67h-1.93C149.21,94,102.52,42.94,45.12,42.94V40.86h106Zm-86-113.73c42.37,8.9,75.85,45.45,84,91.71V42.94Z"/><path class="cls-1" d="M388,226.4c-13,57-118.33,100.2-194.3,100.2q-8.15,0-16.08-.65v9.16c5.29-.39,10.65-.61,16.08-.61,80,0,176.38,43.67,194.3,102.43h38.92V226.4Z"/><path class="cls-1" d="M285.14,41.89h-135V188C150.18,107.29,210.6,41.89,285.14,41.89Z"/><path class="cls-1" d="M151.14,188h-1.93V40.85H285.14v2.08C211.25,42.93,151.14,108,151.14,188Zm0-145v120.3c9.63-61.34,54.46-109.87,111.14-120.3Z"/><path class="cls-2" d="M685.75,267.32V41.89H465.94C583.54,41.89,679.59,141.7,685.75,267.32Z"/><path class="cls-2" d="M684.8,267.38C678.62,141.52,582.49,42.93,465.94,42.93V40.85H686.72V267.32ZM495.22,42.93c97.57,14,175.58,96.85,189.57,203v-203Z"/><path class="cls-2" d="M467.16,620.71H685.75V395.31C679.61,520.5,584.2,620,467.16,620.71Z"/><path class="cls-2" d="M686.72,621.75H467.16v-2.08c115.9-.69,211.49-99.26,217.64-224.41l1.92.05Zm-191.53-2.08h189.6v-203C670.8,522.63,592.7,605.66,495.19,619.67Z"/><path class="cls-1" d="M150.18,474.66V620.71H283.92C210,620,150.18,554.9,150.18,474.66Z"/><path class="cls-1" d="M283.92,621.75H149.21V474.66h1.93c0,79.26,59.57,144.31,132.79,145Zm-132.78-2.08H262.31c-56.62-10.47-101.53-59.16-111.17-120.36Z"/></svg>